<svg xmlns="http://www.w3.org/2000/svg" viewBox="0 0 128 128" role="img" aria-label="Treino Web">
  <defs>
    <linearGradient id="g" x1="0" y1="0" x2="1" y2="1">
      <stop offset="0" stop-color="#38bdf8"/>
      <stop offset="1" stop-color="#6366f1"/>
    </linearGradient>
    <filter id="s" x="-20%" y="-20%" width="140%" height="140%">
      <feDropShadow dx="0" dy="8" stdDeviation="8" flood-color="#020617" flood-opacity="0.35"/>
    </filter>
  </defs>
  <rect width="128" height="128" rx="30" fill="#0f172a"/>
  <circle cx="30" cy="26" r="36" fill="#38bdf8" opacity="0.16"/>
  <circle cx="104" cy="104" r="42" fill="#6366f1" opacity="0.20"/>
  <g filter="url(#s)">
    <path d="M30 51h10v26H30zM19 57h9v14h-9zM42 44h10v40H42zM76 44h10v40H76zM88 51h10v26H88zM100 57h9v14h-9z" fill="url(#g)"/>
    <rect x="50" y="59" width="28" height="10" rx="5" fill="#f8fafc" opacity="0.96"/>
  </g>
  <path d="M39 95c9 7 41 7 50 0" fill="none" stroke="#f8fafc" stroke-width="5" stroke-linecap="round" opacity="0.7"/>
</svg>
